<svg width="26" height="36" viewBox="0 0 26 36" fill="none" xmlns="http://www.w3.org/2000/svg">
<path d="M12.0943 0.0179901C10.486 0.200943 9.56594 0.397968 8.52652 0.784985C5.77346 1.81937 3.46988 3.71224 1.90373 6.23841C0.428876 8.62384 -0.252365 11.7129 0.0847441 14.4713C0.632546 18.9114 3.79294 25.0333 9.03218 31.8167C10.2682 33.4211 11.8625 35.3421 12.2277 35.6728C12.7123 36.1091 13.3022 36.1091 13.7868 35.6728C14.152 35.3421 15.7463 33.4211 16.9823 31.8167C21.6948 25.7159 24.7218 20.171 25.6769 15.8646C25.9227 14.7598 26 14.0421 26 12.8881C25.993 9.51046 24.6445 6.28062 22.2075 3.84594C20.1989 1.82641 17.8321 0.609066 15.044 0.151684C14.3838 0.0461349 12.5718 -0.0383034 12.0943 0.0179901Z" fill="#FC5130"/>
</svg>
